<svg width="48" height="48" viewBox="0 0 48 48" fill="none" xmlns="http://www.w3.org/2000/svg">
<path d="M28.5321 4.1013C28.7547 3.87079 28.8779 3.56206 28.8751 3.24161C28.8724 2.92115 28.7438 2.61461 28.5172 2.38801C28.2906 2.1614 27.9841 2.03287 27.6636 2.03008C27.3432 2.0273 27.0344 2.15049 26.8039 2.37312L24.0014 5.17561L21.199 2.37312C21.0862 2.25639 20.9514 2.16328 20.8022 2.09923C20.6531 2.03517 20.4928 2.00146 20.3305 2.00005C20.1682 1.99864 20.0073 2.02956 19.857 2.09101C19.7068 2.15247 19.5704 2.24322 19.4556 2.35797C19.3409 2.47273 19.2501 2.60919 19.1887 2.75939C19.1272 2.90959 19.0963 3.07053 19.0977 3.23281C19.0991 3.39509 19.1328 3.55547 19.1969 3.70458C19.2609 3.85369 19.354 3.98856 19.4708 4.1013L22.2733 6.90379L19.4708 9.70627C19.2481 9.93678 19.125 10.2455 19.1277 10.566C19.1305 10.8864 19.2591 11.193 19.4857 11.4196C19.7123 11.6462 20.0188 11.7747 20.3393 11.7775C20.6597 11.7803 20.9684 11.6571 21.199 11.4344L24.0014 8.63196L26.8039 11.4344C27.0333 11.6636 27.3442 11.7923 27.6684 11.7922C27.9927 11.7921 28.3035 11.6632 28.5327 11.4338C28.7619 11.2045 28.8906 10.8935 28.8905 10.5693C28.8903 10.2451 28.7614 9.93422 28.5321 9.70505L25.7296 6.90379L28.5321 4.1013Z" fill="#FFA509"/>
<path fill-rule="evenodd" clip-rule="evenodd" d="M2.83653 27.0075L6.88932 28.358V38.6806C6.88932 38.9348 6.96855 39.1826 7.11597 39.3896C7.2634 39.5966 7.47168 39.7525 7.71185 39.8356L23.5906 45.3318C23.8415 45.422 24.1152 45.4267 24.3691 45.3453L24.3862 45.3404L24.4045 45.3343L40.2882 39.8356C40.5283 39.7525 40.7366 39.5966 40.884 39.3896C41.0315 39.1826 41.1107 38.9348 41.1107 38.6806V28.358L45.1635 27.0075C45.3504 26.9453 45.5196 26.8389 45.6565 26.6972C45.7934 26.5556 45.8941 26.383 45.9499 26.194C46.0057 26.0051 46.0151 25.8054 45.9771 25.6121C45.9391 25.4188 45.8549 25.2375 45.7318 25.0838L40.843 18.9728C40.698 18.7923 40.5048 18.6566 40.2857 18.5817L24.3997 13.0818C24.1407 12.9923 23.8593 12.9923 23.6003 13.0818L7.71429 18.5817C7.4952 18.6566 7.30191 18.7922 7.15697 18.9728L2.26821 25.0838C2.14506 25.2375 2.06091 25.4188 2.02293 25.6121C1.98495 25.8054 1.99426 26.0051 2.05008 26.194C2.1059 26.383 2.20656 26.5556 2.3435 26.6972C2.48043 26.8389 2.64958 26.9453 2.83653 27.0075ZM20.7233 32.0478L22.7778 29.1146V42.4646L9.3337 37.8104V29.172L19.3361 32.5061C19.586 32.5892 19.856 32.5893 20.106 32.5065C20.3559 32.4237 20.5724 32.2624 20.7233 32.0466V32.0478ZM11.8477 19.7367L24 23.9435L36.1523 19.7367L24 15.5299L11.8477 19.7367ZM27.2767 32.0478L25.2222 29.1158V42.4658L38.6663 37.8117V29.172L28.6639 32.5061C28.414 32.5892 28.144 32.5893 27.894 32.5065C27.6441 32.4237 27.4276 32.2624 27.2767 32.0466V32.0478ZM8.52705 21.174L5.27236 25.2426L12.0079 27.4878L19.2432 29.8992L22.0702 25.8623L21.9052 25.8049L8.52705 21.1727V21.174ZM42.7276 25.2426L39.4729 21.1727L25.9298 25.8623L28.7568 29.8992L42.7276 25.2426Z" fill="#FFA509"/>
</svg>
