<svg width="48" height="48" viewBox="0 0 48 48" fill="none" xmlns="http://www.w3.org/2000/svg">
<path d="M6 25.5C6 24.6716 6.67157 24 7.5 24H22.5C23.3284 24 24 24.6716 24 25.5C24 26.3284 23.3284 27 22.5 27H7.5C6.67157 27 6 26.3284 6 25.5ZM3 18C3 17.1716 3.67157 16.5 4.5 16.5H16.5C17.3284 16.5 18 17.1716 18 18C18 18.8284 17.3284 19.5 16.5 19.5H4.5C3.67157 19.5 3 18.8284 3 18Z" fill="#00E016"/>
<path d="M44.8775 24.909L40.3775 14.409C40.2621 14.1391 40.0699 13.9091 39.8248 13.7475C39.5797 13.5859 39.2926 13.4998 38.999 13.5H34.499V10.5C34.499 10.1022 34.341 9.72064 34.0597 9.43934C33.7784 9.15804 33.3969 9 32.999 9H10.499C9.67061 9 8.99904 9.67157 8.99904 10.5C8.99904 11.3284 9.67061 12 10.499 12H31.499V30.834C30.8155 31.2309 30.2174 31.7592 29.739 32.3884C29.2607 33.0176 28.9117 33.7352 28.712 34.5H19.286C18.9209 33.086 18.0527 31.8537 16.844 31.0341C15.6354 30.2145 14.1693 29.8638 12.7205 30.0478C11.2718 30.2318 9.93994 30.9379 8.97455 32.0337C8.00917 33.1294 7.47656 34.5396 7.47656 36C7.47656 37.4604 8.00917 38.8706 8.97455 39.9663C9.93994 41.0621 11.2718 41.7682 12.7205 41.9522C14.1693 42.1362 15.6354 41.7855 16.844 40.9659C18.0527 40.1463 18.9209 38.914 19.286 37.5H28.712C29.0383 38.7874 29.7846 39.9292 30.8327 40.7448C31.8808 41.5604 33.171 42.0032 34.499 42.0032C35.8271 42.0032 37.1173 41.5604 38.1654 40.7448C39.2135 39.9292 39.9597 38.7874 40.286 37.5H43.499C43.8969 37.5 44.2784 37.342 44.5597 37.0607C44.841 36.7794 44.999 36.3978 44.999 36V25.5C44.9991 25.2968 44.9578 25.0957 44.8775 24.909ZM13.499 39C12.9057 39 12.3257 38.8241 11.8323 38.4944C11.339 38.1648 10.9545 37.6962 10.7274 37.1481C10.5003 36.5999 10.4409 35.9967 10.5567 35.4147C10.6724 34.8328 10.9582 34.2982 11.3777 33.8787C11.7973 33.4591 12.3318 33.1734 12.9138 33.0576C13.4957 32.9419 14.0989 33.0013 14.6471 33.2284C15.1953 33.4554 15.6638 33.8399 15.9934 34.3333C16.3231 34.8266 16.499 35.4067 16.499 36C16.4982 36.7954 16.1819 37.558 15.6195 38.1204C15.057 38.6829 14.2944 38.9992 13.499 39ZM34.499 16.5H38.009L41.225 24H34.499V16.5ZM34.499 39C33.9057 39 33.3257 38.8241 32.8323 38.4944C32.339 38.1648 31.9545 37.6962 31.7274 37.1481C31.5003 36.5999 31.4409 35.9967 31.5567 35.4147C31.6724 34.8328 31.9582 34.2982 32.3777 33.8787C32.7973 33.4591 33.3318 33.1734 33.9138 33.0576C34.4957 32.9419 35.0989 33.0013 35.6471 33.2284C36.1953 33.4554 36.6638 33.8399 36.9934 34.3333C37.3231 34.8266 37.499 35.4067 37.499 36C37.4982 36.7954 37.1819 37.558 36.6195 38.1204C36.057 38.6829 35.2944 38.9992 34.499 39ZM41.999 34.5H40.286C39.9556 33.2151 39.2082 32.0763 38.1609 31.2619C37.1136 30.4475 35.8257 30.0037 34.499 30V27H41.999V34.5Z" fill="#00E016"/>
</svg>
