<svg width="48" height="48" viewBox="0 0 48 48" fill="none" xmlns="http://www.w3.org/2000/svg">
<path d="M47.6939 10.8799C47.5917 10.231 47.2947 9.62852 46.8423 9.15227C46.3899 8.67602 45.8033 8.34855 45.1605 8.21327L37.3339 6.49327C36.4946 6.31022 35.6257 6.30953 34.7861 6.49125C33.9465 6.67298 33.1557 7.03287 32.4672 7.5466L9.33387 24.3999L2.85387 24.1333C2.33296 24.1146 1.81941 24.2606 1.38618 24.5504C0.952939 24.8403 0.622038 25.2592 0.440473 25.7478C0.258908 26.2364 0.235909 26.7698 0.374745 27.2722C0.51358 27.7747 0.80719 28.2206 1.21387 28.5466L7.88054 33.7866C8.68054 34.7599 9.21387 34.5733 22.4539 27.3599L23.6939 39.9199C23.7145 40.2626 23.832 40.5923 24.0326 40.8708C24.2332 41.1493 24.5088 41.3652 24.8272 41.4933C25.0563 41.5838 25.3008 41.6291 25.5472 41.6266C26.0431 41.6114 26.5167 41.4173 26.8805 41.0799L30.0672 38.1733C30.3845 37.8793 30.5994 37.4915 30.6805 37.0666L33.6005 21.1999C38.3605 18.5333 42.8672 16.0266 46.0805 14.1999C46.6554 13.8766 47.1179 13.3854 47.4062 12.7921C47.6945 12.1989 47.7949 11.5318 47.6939 10.8799ZM44.7605 11.8799C41.4272 13.7733 36.7605 16.4266 31.7472 19.1733L31.2005 19.4799L28.0939 36.3733L26.1339 38.1599L24.6672 23.0933L22.8939 23.9999C13.3339 29.3333 10.1472 30.8799 9.05387 31.3599L3.32054 26.8133L10.0939 27.1066L34.0939 9.69327C34.4711 9.41124 34.9036 9.21201 35.3632 9.10862C35.8227 9.00522 36.2989 8.99999 36.7605 9.09327L44.5605 10.7733C44.6807 10.7951 44.7908 10.8547 44.8748 10.9434C44.9587 11.0322 45.0121 11.1454 45.0272 11.2666C45.0546 11.3839 45.0435 11.507 44.9955 11.6174C44.9474 11.7279 44.8651 11.82 44.7605 11.8799Z" fill="#8500B4"/>
<path d="M9.33345 16.7201L14.0801 18.0534L16.2668 16.4668L10.9335 14.9201L13.3335 13.4534L20.6268 13.2401L23.6935 11.0134L13.3335 11.3334C13.0068 11.3158 12.6822 11.3946 12.4001 11.5601L8.89345 13.6001C8.60354 13.7718 8.37096 14.0256 8.22502 14.3293C8.07908 14.633 8.02631 14.9731 8.07336 15.3068C8.12042 15.6404 8.26519 15.9527 8.48943 16.2042C8.71368 16.4557 9.00735 16.6352 9.33345 16.7201Z" fill="#8500B4"/>
</svg>
