<svg width="48" height="48" viewBox="0 0 48 48" fill="none" xmlns="http://www.w3.org/2000/svg">
<path d="M36.2535 45.3333C35.6643 45.3328 35.0886 45.1564 34.6002 44.8267L24.6535 38.16C24.6045 38.1262 24.5464 38.108 24.4869 38.108C24.4273 38.108 24.3692 38.1262 24.3202 38.16L14.3735 44.8267C13.8741 45.1602 13.285 45.3338 12.6844 45.3246C12.0839 45.3154 11.5004 45.1237 11.0114 44.7751C10.5224 44.4264 10.151 43.9372 9.94659 43.3725C9.74216 42.8078 9.71436 42.1942 9.86687 41.6133L13.1335 30.0933C13.149 30.0354 13.1471 29.9742 13.1282 29.9173C13.1092 29.8605 13.074 29.8104 13.0269 29.7733L3.61354 22.3733C3.11799 22.0042 2.7504 21.4892 2.56232 20.9005C2.37423 20.3119 2.37508 19.6792 2.56475 19.0911C2.75442 18.503 3.12339 17.989 3.61993 17.6211C4.11647 17.2533 4.71568 17.0501 5.33354 17.04L17.3335 16.5867C17.3925 16.5826 17.4491 16.5615 17.4964 16.5261C17.5437 16.4906 17.5798 16.4422 17.6002 16.3867L21.7335 5.14666C21.9419 4.57685 22.3203 4.08482 22.8175 3.73719C23.3148 3.38956 23.9068 3.20312 24.5135 3.20312C25.1202 3.20312 25.7123 3.38956 26.2095 3.73719C26.7068 4.08482 27.0852 4.57685 27.2935 5.14666L31.4269 16.3867C31.4473 16.4422 31.4833 16.4906 31.5307 16.5261C31.578 16.5615 31.6345 16.5826 31.6935 16.5867L43.6935 17.04C44.3114 17.0501 44.9106 17.2533 45.4071 17.6211C45.9037 17.989 46.2727 18.503 46.4623 19.0911C46.652 19.6792 46.6528 20.3119 46.4648 20.9005C46.2767 21.4892 45.9091 22.0042 45.4135 22.3733L36.0002 29.7733C35.9517 29.8092 35.9154 29.8592 35.8963 29.9165C35.8772 29.9737 35.8762 30.0355 35.8935 30.0933L39.1602 41.6133C39.2749 42.0552 39.2862 42.5175 39.1935 42.9645C39.1007 43.4115 38.9062 43.8311 38.6251 44.1908C38.3441 44.5505 37.9839 44.8407 37.5727 45.0388C37.1614 45.237 36.71 45.3377 36.2535 45.3333ZM24.4935 35.44C25.084 35.4581 25.6554 35.6532 26.1335 36L36.0802 42.6667C36.1306 42.705 36.1921 42.7259 36.2554 42.7265C36.3187 42.727 36.3805 42.707 36.4315 42.6694C36.4825 42.6319 36.52 42.5789 36.5384 42.5184C36.5568 42.4578 36.5551 42.3929 36.5335 42.3333L33.2669 30.8133C33.1061 30.2482 33.118 29.6479 33.3009 29.0896C33.4839 28.5313 33.8295 28.0404 34.2935 27.68L43.7069 20.28C43.7582 20.2439 43.7967 20.1923 43.8165 20.1328C43.8364 20.0733 43.8366 20.009 43.8172 19.9493C43.7978 19.8896 43.7598 19.8377 43.7088 19.8013C43.6577 19.7648 43.5963 19.7456 43.5335 19.7467L31.5335 19.2933C30.946 19.2704 30.3785 19.073 29.9036 18.7263C29.4286 18.3796 29.0677 17.8993 28.8669 17.3467L24.7335 6.10666C24.7149 6.04698 24.6777 5.99482 24.6273 5.95778C24.5769 5.92074 24.5161 5.90076 24.4535 5.90076C24.391 5.90076 24.3301 5.92074 24.2798 5.95778C24.2294 5.99482 24.1922 6.04698 24.1735 6.10666L20.0802 17.3333C19.8793 17.886 19.5184 18.3663 19.0435 18.713C18.5686 19.0597 18.0011 19.2571 17.4135 19.28L5.41354 19.7333C5.3508 19.7323 5.28938 19.7514 5.23832 19.7879C5.18725 19.8244 5.14923 19.8763 5.12984 19.936C5.11044 19.9956 5.11069 20.06 5.13056 20.1195C5.15042 20.179 5.18885 20.2306 5.2402 20.2667L14.6669 27.68C15.1295 28.0416 15.4741 28.5325 15.6569 29.0905C15.8397 29.6484 15.8525 30.2481 15.6935 30.8133L12.4402 42.3333C12.4208 42.391 12.4207 42.4535 12.4399 42.5112C12.4592 42.5689 12.4967 42.6188 12.5469 42.6533C12.5952 42.6946 12.6566 42.7173 12.7202 42.7173C12.7838 42.7173 12.8452 42.6946 12.8935 42.6533L22.8402 35.9867C23.3263 35.6642 23.8969 35.4926 24.4802 35.4933L24.4935 35.44Z" fill="#0053E0"/>
</svg>
