<svg width="49" height="49" viewBox="0 0 49 49" fill="none" xmlns="http://www.w3.org/2000/svg">
<path d="M26.9504 28.1749V35.5249C26.9504 35.8498 27.0795 36.1614 27.3092 36.3911C27.5389 36.6208 27.8505 36.7499 28.1754 36.7499H35.5254C35.8503 36.7499 36.1619 36.6208 36.3916 36.3911C36.6213 36.1614 36.7504 35.8498 36.7504 35.5249V28.1749C36.7504 27.85 36.6213 27.5384 36.3916 27.3087C36.1619 27.079 35.8503 26.9499 35.5254 26.9499H28.1754C27.8505 26.9499 27.5389 27.079 27.3092 27.3087C27.0795 27.5384 26.9504 27.85 26.9504 28.1749ZM29.4004 34.2999V29.3999H34.3004V34.2999H29.4004ZM12.2504 4.8999C12.0708 4.89997 11.8935 4.93951 11.7309 5.01572C11.5683 5.09192 11.4245 5.20294 11.3096 5.3409L5.18459 12.6909C5.00108 12.911 4.90052 13.1884 4.90039 13.4749V17.1499C4.90039 19.3255 5.84609 21.2831 7.35039 22.6281V42.8749C7.35039 43.1998 7.47945 43.5114 7.70919 43.7411C7.93892 43.9708 8.2505 44.0999 8.57539 44.0999H40.4254C40.7503 44.0999 41.0619 43.9708 41.2916 43.7411C41.5213 43.5114 41.6504 43.1998 41.6504 42.8749V22.6281C43.1547 21.2806 44.1004 19.3255 44.1004 17.1499V13.4308C44.1004 13.2103 44.1004 13.0339 43.8162 12.6909L37.6912 5.3409C37.5763 5.20294 37.4324 5.09192 37.2699 5.01572C37.1073 4.93951 36.9299 4.89997 36.7504 4.8999H12.2504ZM12.2504 22.0499C10.9508 22.0499 9.7045 21.5337 8.78557 20.6147C7.86664 19.6958 7.35039 18.4495 7.35039 17.1499V14.6999H17.1504V17.1499C17.1504 18.4495 16.6341 19.6958 15.7152 20.6147C14.7963 21.5337 13.55 22.0499 12.2504 22.0499ZM24.5004 22.0499C23.2008 22.0499 21.9545 21.5337 21.0356 20.6147C20.1166 19.6958 19.6004 18.4495 19.6004 17.1499V14.6999H29.4004V17.1499C29.4004 18.4495 28.8841 19.6958 27.9652 20.6147C27.0463 21.5337 25.8 22.0499 24.5004 22.0499ZM36.7504 22.0499C35.4508 22.0499 34.2045 21.5337 33.2856 20.6147C32.3666 19.6958 31.8504 18.4495 31.8504 17.1499V14.6999H41.6504V17.1499C41.6504 18.4495 41.1341 19.6958 40.2152 20.6147C39.2963 21.5337 38.05 22.0499 36.7504 22.0499ZM12.2504 41.6499H9.80039V24.0834C11.3446 24.6308 13.0276 24.6459 14.5814 24.1265C16.1353 23.6071 17.4708 22.5829 18.3754 21.2169C19.0458 22.2273 19.9561 23.056 21.0249 23.6289C22.0937 24.2018 23.2877 24.501 24.5004 24.4999C25.7133 24.5007 26.9074 24.2011 27.9763 23.6278C29.0451 23.0545 29.9552 22.2254 30.6254 21.2145C31.53 22.5804 32.8655 23.6046 34.4194 24.1241C35.9732 24.6435 37.6562 24.6283 39.2004 24.081V41.6499H24.5004V28.1749C24.5004 27.85 24.3713 27.5384 24.1416 27.3087C23.9119 27.079 23.6003 26.9499 23.2754 26.9499H13.4754C13.1505 26.9499 12.8389 27.079 12.6092 27.3087C12.3795 27.5384 12.2504 27.85 12.2504 28.1749V41.6499ZM17.4934 12.2499H8.74199L12.8237 7.3499H19.1251L17.4934 12.2499ZM28.9251 12.2499H20.0757L21.7074 7.3499H27.2934L28.9251 12.2499ZM31.5074 12.2499L29.8757 7.3499H36.1771L40.2612 12.2499H31.5074ZM14.7004 41.6499V29.3999H22.0504V41.6499H14.7004Z" fill="#31CEFF"/>
</svg>
