<svg width="66" height="66" viewBox="0 0 66 66" fill="none" xmlns="http://www.w3.org/2000/svg">
<path d="M24.75 55H16.5C13.5826 55 10.7847 53.8411 8.72183 51.7782C6.65893 49.7153 5.5 46.9174 5.5 44V19.25C5.5 16.3326 6.65893 13.5347 8.72183 11.4718C10.7847 9.40892 13.5826 8.25 16.5 8.25H46.75C49.6674 8.25 52.4653 9.40892 54.5282 11.4718C56.5911 13.5347 57.75 16.3326 57.75 19.25V27.5M22 5.5V11M41.25 5.5V11M5.5 22H57.75M50.875 43.0182L46.75 47.1432" stroke="black" stroke-width="4" stroke-linecap="round" stroke-linejoin="round"/>
<path d="M46.75 60.5C54.3439 60.5 60.5 54.3439 60.5 46.75C60.5 39.1561 54.3439 33 46.75 33C39.1561 33 33 39.1561 33 46.75C33 54.3439 39.1561 60.5 46.75 60.5Z" stroke="black" stroke-width="4" stroke-linecap="round" stroke-linejoin="round"/>
</svg>
