<svg width="66" height="66" viewBox="0 0 66 66" fill="none" xmlns="http://www.w3.org/2000/svg">
<path d="M33 61.875C27.2891 61.875 21.7064 60.1815 16.9579 57.0087C12.2095 53.8359 8.50847 49.3262 6.32299 44.05C4.13751 38.7738 3.56569 32.968 4.67984 27.3668C5.79399 21.7656 8.54406 16.6205 12.5823 12.5823C16.6205 8.54406 21.7656 5.79399 27.3668 4.67984C32.968 3.56569 38.7738 4.13751 44.05 6.32299C49.3262 8.50847 53.8359 12.2095 57.0087 16.9579C60.1815 21.7064 61.875 27.2891 61.875 33C61.875 40.6581 58.8328 48.0026 53.4177 53.4177C48.0026 58.8328 40.6581 61.875 33 61.875ZM33 8.25001C28.1049 8.25001 23.3198 9.70157 19.2497 12.4211C15.1795 15.1407 12.0073 19.0061 10.134 23.5286C8.26073 28.0511 7.77059 33.0275 8.72558 37.8285C9.68056 42.6295 12.0378 47.0396 15.4991 50.5009C18.9605 53.9623 23.3705 56.3195 28.1715 57.2744C32.9726 58.2294 37.949 57.7393 42.4714 55.866C46.9939 53.9928 50.8593 50.8205 53.5789 46.7504C56.2984 42.6803 57.75 37.8951 57.75 33C57.75 26.4359 55.1424 20.1406 50.5009 15.4991C45.8594 10.8576 39.5641 8.25001 33 8.25001Z" fill="black"/>
<path d="M43.9217 43.9202C43.1182 44.7237 41.8155 44.7237 41.0121 43.9202L31.8162 34.7243C31.2536 34.1617 30.9375 33.3986 30.9375 32.603V16.5C30.9375 15.3609 31.8609 14.4375 33 14.4375C34.1391 14.4375 35.0625 15.3609 35.0625 16.5V31.3065C35.0625 31.8362 35.2727 32.3443 35.6469 32.7193L43.9231 41.0121C44.7252 41.8158 44.7246 43.1173 43.9217 43.9202Z" fill="black"/>
</svg>
