<svg width="68" height="68" viewBox="0 0 68 68" fill="none" xmlns="http://www.w3.org/2000/svg">
<path d="M33.7296 17.2803C32.0815 17.2803 30.4703 17.769 29.0999 18.6847C27.7295 19.6004 26.6614 20.9019 26.0306 22.4246C25.3999 23.9473 25.2349 25.6229 25.5564 27.2394C25.878 28.8559 26.6716 30.3407 27.8371 31.5062C29.0025 32.6716 30.4874 33.4653 32.1039 33.7868C33.7204 34.1084 35.396 33.9433 36.9187 33.3126C38.4414 32.6819 39.7429 31.6138 40.6586 30.2434C41.5742 28.8729 42.063 27.2618 42.063 25.6136C42.0605 23.4042 41.1817 21.2861 39.6194 19.7238C38.0572 18.1616 35.939 17.2828 33.7296 17.2803ZM33.7296 29.7803C32.9055 29.7803 32.1 29.5359 31.4148 29.0781C30.7296 28.6202 30.1955 27.9695 29.8801 27.2081C29.5648 26.4468 29.4823 25.609 29.643 24.8007C29.8038 23.9925 30.2006 23.25 30.7834 22.6673C31.3661 22.0846 32.1085 21.6878 32.9168 21.527C33.725 21.3662 34.5628 21.4487 35.3242 21.7641C36.0855 22.0795 36.7363 22.6135 37.1941 23.2987C37.6519 23.9839 37.8963 24.7895 37.8963 25.6136C37.895 26.7183 37.4556 27.7774 36.6745 28.5585C35.8934 29.3396 34.8343 29.779 33.7296 29.7803Z" fill="black"/>
<path d="M49.7429 9.58791C45.7836 5.62963 40.4985 3.27825 34.9074 2.98759C29.3164 2.69693 23.8159 4.4876 19.4675 8.01399C15.1192 11.5404 12.2311 16.5525 11.3609 22.083C10.4906 27.6135 11.6999 33.2704 14.7551 37.9617L30.4982 62.1301C30.8486 62.6679 31.3276 63.1097 31.8919 63.4156C32.4562 63.7215 33.0879 63.8816 33.7297 63.8816C34.3715 63.8816 35.0032 63.7215 35.5675 63.4156C36.1318 63.1097 36.6108 62.6679 36.9611 62.1301L52.7048 37.9617C55.5397 33.6098 56.7926 28.4156 56.2533 23.2498C55.7141 18.084 53.4155 13.2605 49.7429 9.58791ZM49.2136 35.6874L33.7298 59.4569L18.2458 35.6874C13.5062 28.4115 14.5227 18.6745 20.6628 12.5341C22.3788 10.8181 24.4159 9.45692 26.658 8.52822C28.9 7.59952 31.303 7.12153 33.7298 7.12153C36.1565 7.12153 38.5595 7.59952 40.8015 8.52822C43.0436 9.45692 45.0807 10.8181 46.7967 12.5341C52.9368 18.6745 53.9532 28.4115 49.2136 35.6874Z" fill="black"/>
</svg>
