<svg width="68" height="68" viewBox="0 0 68 68" fill="none" xmlns="http://www.w3.org/2000/svg">
<g clip-path="url(#clip0_1_5617)">
<path d="M46.9629 8.07422H21.037C20.0547 8.07422 19.1126 8.46443 18.418 9.15901C17.7235 9.85359 17.3333 10.7956 17.3333 11.7779V56.2224C17.3333 57.2046 17.7235 58.1467 18.418 58.8413C19.1126 59.5359 20.0547 59.9261 21.037 59.9261H46.9629C47.9452 59.9261 48.8872 59.5359 49.5818 58.8413C50.2764 58.1467 50.6666 57.2046 50.6666 56.2224V11.7779C50.6666 10.7956 50.2764 9.85359 49.5818 9.15901C48.8872 8.46443 47.9452 8.07422 46.9629 8.07422ZM21.037 11.7779H46.9629V45.1113H21.037V11.7779ZM21.037 56.2224V48.815H46.9629V56.2224H21.037Z" fill="black"/>
<path d="M32.1481 50.667H35.8518V54.3707H32.1481V50.667Z" fill="black"/>
</g>
<defs>
<clipPath id="clip0_1_5617">
<rect width="66.6667" height="66.6667" fill="white" transform="translate(0.666626 0.666992)"/>
</clipPath>
</defs>
</svg>
