<svg width="36" height="36" viewBox="0 0 36 36" fill="none" xmlns="http://www.w3.org/2000/svg">
<path d="M31.5 9.375C31.5 8.08207 30.9864 6.84209 30.0721 5.92785C29.1579 5.01361 27.9179 4.5 26.625 4.5H9.375C8.08207 4.5 6.84209 5.01361 5.92785 5.92785C5.01361 6.84209 4.5 8.08207 4.5 9.375V26.625C4.5 27.9179 5.01361 29.1579 5.92785 30.0721C6.84209 30.9864 8.08207 31.5 9.375 31.5H18.033C17.5834 30.7987 17.226 30.0425 16.9695 29.25H9.375C8.67881 29.25 8.01113 28.9734 7.51884 28.4812C7.02656 27.9889 6.75 27.3212 6.75 26.625V12.75H29.25V16.9695C30.0425 17.226 30.7987 17.5834 31.5 18.033V9.375ZM9.375 6.75H26.625C28.074 6.75 29.25 7.926 29.25 9.375V10.5H6.75V9.375C6.75 7.926 7.926 6.75 9.375 6.75Z" fill="black"/>
<path d="M25.875 18C21.5273 18 18 21.5273 18 25.875C18 30.2227 21.5273 33.75 25.875 33.75C30.2227 33.75 33.75 30.2227 33.75 25.875C33.75 21.5273 30.2227 18 25.875 18Z" stroke="black" stroke-width="2" stroke-miterlimit="10"/>
<path d="M25.875 20.625V26.5312H29.8125" stroke="black" stroke-width="1.8" stroke-linecap="round" stroke-linejoin="round"/>
</svg>
