<svg width="28" height="28" viewBox="0 0 28 28" fill="none" xmlns="http://www.w3.org/2000/svg">
<path d="M8.16602 25.6668C7.52435 25.6668 6.97524 25.4386 6.51868 24.982C6.06135 24.5247 5.83268 23.9752 5.83268 23.3335C5.83268 22.6918 6.06135 22.1423 6.51868 21.685C6.97524 21.2284 7.52435 21.0002 8.16602 21.0002C8.80768 21.0002 9.35679 21.2284 9.81335 21.685C10.2707 22.1423 10.4993 22.6918 10.4993 23.3335C10.4993 23.9752 10.2707 24.5247 9.81335 24.982C9.35679 25.4386 8.80768 25.6668 8.16602 25.6668ZM19.8327 25.6668C19.191 25.6668 18.6419 25.4386 18.1853 24.982C17.728 24.5247 17.4993 23.9752 17.4993 23.3335C17.4993 22.6918 17.728 22.1423 18.1853 21.685C18.6419 21.2284 19.191 21.0002 19.8327 21.0002C20.4743 21.0002 21.0238 21.2284 21.4812 21.685C21.9377 22.1423 22.166 22.6918 22.166 23.3335C22.166 23.9752 21.9377 24.5247 21.4812 24.982C21.0238 25.4386 20.4743 25.6668 19.8327 25.6668ZM7.17435 7.00016L9.97435 12.8335H18.141L21.3493 7.00016H7.17435ZM8.16602 19.8335C7.29102 19.8335 6.6299 19.4493 6.18268 18.6808C5.73546 17.9132 5.71602 17.1502 6.12435 16.3918L7.69935 13.5335L3.49935 4.66683H2.30352C1.97296 4.66683 1.70074 4.55483 1.48685 4.33083C1.27296 4.10761 1.16602 3.83072 1.16602 3.50016C1.16602 3.16961 1.27802 2.89233 1.50202 2.66833C1.72524 2.44511 2.00213 2.3335 2.33268 2.3335H4.22852C4.4424 2.3335 4.64657 2.39183 4.84102 2.5085C5.03546 2.62516 5.18129 2.79044 5.27852 3.00433L6.06602 4.66683H23.2743C23.7993 4.66683 24.1591 4.86127 24.3535 5.25016C24.548 5.63905 24.5382 6.04739 24.3243 6.47516L20.1827 13.9418C19.9688 14.3307 19.6868 14.6321 19.3368 14.846C18.9868 15.0599 18.5882 15.1668 18.141 15.1668H9.44935L8.16602 17.5002H21.0285C21.3591 17.5002 21.6313 17.6118 21.8452 17.835C22.0591 18.059 22.166 18.3363 22.166 18.6668C22.166 18.9974 22.054 19.2743 21.83 19.4975C21.6068 19.7215 21.3299 19.8335 20.9993 19.8335H8.16602ZM9.97435 12.8335H18.141H9.97435Z" fill="white"/>
</svg>
