<svg width="36" height="36" viewBox="0 0 36 36" fill="none" xmlns="http://www.w3.org/2000/svg">
<path d="M3.59961 12.1502C3.59961 10.8374 4.12113 9.57832 5.04943 8.65002C5.97774 7.72171 7.23679 7.2002 8.54961 7.2002H27.4496C28.7624 7.2002 30.0215 7.72171 30.9498 8.65002C31.8781 9.57832 32.3996 10.8374 32.3996 12.1502V23.8502C32.3996 25.163 31.8781 26.4221 30.9498 27.3504C30.0215 28.2787 28.7624 28.8002 27.4496 28.8002H8.54961C7.23679 28.8002 5.97774 28.2787 5.04943 27.3504C4.12113 26.4221 3.59961 25.163 3.59961 23.8502V12.1502ZM8.54961 9.0002C7.71418 9.0002 6.91296 9.33207 6.32222 9.92281C5.73148 10.5135 5.39961 11.3148 5.39961 12.1502V23.8502C5.39961 25.589 6.81081 27.0002 8.54961 27.0002H27.4496C28.285 27.0002 29.0863 26.6683 29.677 26.0776C30.2677 25.4868 30.5996 24.6856 30.5996 23.8502V12.1502C30.5996 11.3148 30.2677 10.5135 29.677 9.92281C29.0863 9.33207 28.285 9.0002 27.4496 9.0002H8.54961ZM19.7996 11.7002C19.7996 11.4615 19.8944 11.2326 20.0632 11.0638C20.232 10.895 20.4609 10.8002 20.6996 10.8002H24.2996C24.5383 10.8002 24.7672 10.895 24.936 11.0638C25.1048 11.2326 25.1996 11.4615 25.1996 11.7002V15.3002C25.1996 15.5389 25.1048 15.7678 24.936 15.9366C24.7672 16.1054 24.5383 16.2002 24.2996 16.2002C24.0609 16.2002 23.832 16.1054 23.6632 15.9366C23.4944 15.7678 23.3996 15.5389 23.3996 15.3002V13.8728L20.4368 16.8374C20.2678 17.0064 20.0386 17.1013 19.7996 17.1013C19.5606 17.1013 19.3314 17.0064 19.1624 16.8374C18.9934 16.6684 18.8985 16.4392 18.8985 16.2002C18.8985 15.9612 18.9934 15.732 19.1624 15.563L22.127 12.6002H20.6996C20.4609 12.6002 20.232 12.5054 20.0632 12.3366C19.8944 12.1678 19.7996 11.9389 19.7996 11.7002ZM15.5624 19.163C15.7314 18.994 15.9606 18.8991 16.1996 18.8991C16.4386 18.8991 16.6678 18.994 16.8368 19.163C17.0058 19.332 17.1007 19.5612 17.1007 19.8002C17.1007 20.0392 17.0058 20.2684 16.8368 20.4374L13.8722 23.4002H15.2996C15.5383 23.4002 15.7672 23.495 15.936 23.6638C16.1048 23.8326 16.1996 24.0615 16.1996 24.3002C16.1996 24.5389 16.1048 24.7678 15.936 24.9366C15.7672 25.1054 15.5383 25.2002 15.2996 25.2002H11.6996C11.4609 25.2002 11.232 25.1054 11.0632 24.9366C10.8944 24.7678 10.7996 24.5389 10.7996 24.3002V20.7002C10.7996 20.4615 10.8944 20.2326 11.0632 20.0638C11.232 19.895 11.4609 19.8002 11.6996 19.8002C11.9383 19.8002 12.1672 19.895 12.336 20.0638C12.5048 20.2326 12.5996 20.4615 12.5996 20.7002V22.1276L15.5624 19.163Z" fill="black"/>
</svg>
