<svg width="36" height="36" viewBox="0 0 36 36" fill="none" xmlns="http://www.w3.org/2000/svg">
<path d="M31.8604 5.55546C31.0242 4.71934 30.0315 4.05617 28.939 3.60387C27.8465 3.15157 26.6755 2.91899 25.493 2.91943C24.3106 2.91988 23.1398 3.15333 22.0476 3.60646C20.9554 4.05958 19.9632 4.72349 19.1277 5.56024L18.0371 6.66415L16.9555 5.56263L16.9485 5.5556C16.1128 4.71987 15.1206 4.05693 14.0287 3.60463C12.9367 3.15233 11.7664 2.91954 10.5845 2.91954C9.4026 2.91954 8.23227 3.15233 7.14034 3.60463C6.0484 4.05693 5.05625 4.71987 4.22052 5.5556L3.73466 6.04146C2.04684 7.72929 1.09863 10.0185 1.09863 12.4054C1.09863 14.7924 2.04684 17.0815 3.73466 18.7694L16.5578 31.5923L18.0058 33.1095L18.0404 33.0749L18.0778 33.1124L19.4346 31.6809L32.3462 18.7692C34.0315 17.08 34.978 14.7913 34.978 12.4052C34.978 10.0191 34.0315 7.73042 32.3462 6.04125L31.8604 5.55546ZM30.7549 17.1782L18.0404 29.893L5.32555 17.1782C4.05969 15.9123 3.34854 14.1954 3.34854 12.4052C3.34854 10.615 4.05969 8.89815 5.32555 7.63228L5.81148 7.14642C7.07673 5.88118 8.79257 5.17008 10.5819 5.16941C12.3712 5.16874 14.0876 5.87855 15.3538 7.14284L18.0322 9.87005L20.7234 7.14642C21.3502 6.51962 22.0943 6.02242 22.9132 5.68319C23.7322 5.34397 24.6099 5.16938 25.4963 5.16938C26.3828 5.16938 27.2605 5.34397 28.0795 5.68319C28.8984 6.02242 29.6425 6.51962 30.2693 7.14642L30.7552 7.63221C32.0191 8.89912 32.729 10.6157 32.7289 12.4053C32.7288 14.1949 32.0189 15.9114 30.7549 17.1782Z" fill="black"/>
</svg>
