<svg width="28" height="28" viewBox="0 0 28 28" fill="none" xmlns="http://www.w3.org/2000/svg">
<path d="M14.0018 5.28381C16.7423 2.82331 20.9773 2.90498 23.6175 5.54981C26.2565 8.19581 26.3475 12.4098 23.8928 15.1585L13.9995 25.0658L4.10849 15.1585C1.65382 12.4098 1.74599 8.18881 4.38382 5.54981C7.02632 2.90848 11.2532 2.81981 14.0018 5.28381ZM21.9655 7.19831C20.2155 5.44598 17.3922 5.37481 15.5605 7.01981L14.003 8.41748L12.4443 7.02098C10.6068 5.37364 7.78932 5.44598 6.03466 7.20064C4.29632 8.93898 4.20882 11.7215 5.81066 13.5601L14.0007 21.763L22.1907 13.5613C23.7937 11.7215 23.7062 8.94248 21.9655 7.19831Z" fill="white"/>
</svg>
