<svg width="36" height="36" viewBox="0 0 36 36" fill="none" xmlns="http://www.w3.org/2000/svg">
<path fill-rule="evenodd" clip-rule="evenodd" d="M21.3448 2.66371C19.2491 3.11234 17.5635 4.81356 17.1311 6.91658C17.0617 7.25441 17.0356 7.7274 17.0356 8.64975V9.91826L14.6097 9.9185C12.2955 9.91868 12.1749 9.92422 11.9875 10.0385C11.8794 10.1044 11.7372 10.2467 11.6713 10.3548C11.5557 10.5445 11.5515 10.6647 11.5513 13.8518L11.5511 17.1524L7.37749 17.1526C3.31917 17.1528 3.19845 17.1561 3.00746 17.2726C2.8994 17.3385 2.75717 17.4808 2.69129 17.5889C2.57365 17.7818 2.57148 17.9061 2.5713 24.4565C2.57106 30.8217 2.57624 31.1443 2.6846 31.4925C2.841 31.9951 3.04489 32.3219 3.4285 32.6849C3.79174 33.0284 4.06922 33.1877 4.55583 33.3321C4.85241 33.42 6.11528 33.4291 17.9958 33.4284C32.0485 33.4276 31.3678 33.4421 31.9778 33.1302C32.3198 32.9553 32.8546 32.4496 33.0497 32.1166C33.1332 31.974 33.2527 31.6932 33.3151 31.4925C33.4244 31.141 33.4287 30.7474 33.4284 20.8394C33.4282 10.6798 33.4267 10.5488 33.3084 10.3548C33.2426 10.2467 33.1003 10.1044 32.9923 10.0385C32.8049 9.92422 32.6843 9.91868 30.3792 9.9185L27.9626 9.91826L27.9235 9.24006C27.9021 8.86708 27.8844 8.29625 27.8842 7.97156C27.883 5.40562 26.0599 3.18034 23.532 2.65931C22.9541 2.54018 21.912 2.54229 21.3448 2.66371ZM23.4305 4.52932C24.3403 4.79674 25.1914 5.47898 25.6036 6.27106C25.9891 7.01201 26.029 7.21806 26.0607 8.63721L26.0893 9.91826H22.503H18.9166L18.8729 8.9859C18.8095 7.63197 18.8998 7.06584 19.3012 6.3012C19.8084 5.3352 20.7792 4.6294 21.8666 4.436C22.2783 4.36282 23.0133 4.40665 23.4305 4.52932ZM17.0961 12.3146C17.0963 12.7947 17.1182 12.9383 17.2161 13.0988C17.571 13.6811 18.4287 13.6811 18.7837 13.0988C18.8815 12.9383 18.9035 12.7947 18.9037 12.3146L18.9039 11.7268H22.52H26.1361L26.1364 12.3146C26.1366 12.7947 26.1585 12.9383 26.2564 13.0988C26.6113 13.6811 27.469 13.6811 27.824 13.0988C27.9218 12.9383 27.9438 12.7947 27.944 12.3146L27.9442 11.7268H29.7831H31.622L31.6063 21.3679C31.5905 30.9991 31.5903 31.0091 31.4662 31.1754C31.3978 31.267 31.2671 31.3978 31.1756 31.4661C31.0128 31.5877 30.9353 31.5908 27.6309 31.6075L24.2527 31.6245L24.3041 31.4869C24.3324 31.4112 24.363 28.2974 24.3723 24.5673C24.3888 17.8797 24.3874 17.7826 24.2687 17.5889C24.2025 17.4808 24.06 17.3385 23.9519 17.2726C23.76 17.1555 23.638 17.1528 18.5573 17.1526L13.3592 17.1524V14.4396V11.7268H15.2275H17.0958L17.0961 12.3146ZM22.5664 24.9849C22.5503 30.9625 22.5492 31.0102 22.4259 31.1754C22.3575 31.267 22.2267 31.3978 22.1352 31.4661C21.9689 31.5903 21.9596 31.5905 13.4797 31.5905C4.99983 31.5905 4.99048 31.5903 4.8242 31.4661C4.73265 31.3978 4.60187 31.267 4.53353 31.1754C4.41022 31.0102 4.40913 30.9625 4.39304 24.9849L4.37683 18.9609H13.4797H22.5826L22.5664 24.9849ZM8.49192 20.8897C8.10963 21.1228 8.05599 21.2955 8.05575 22.2941C8.05551 23.2886 8.14567 23.8545 8.4155 24.5514C8.93785 25.9005 10.158 27.121 11.5068 27.6435C12.7522 28.1259 14.2072 28.1259 15.4526 27.6435C16.8014 27.121 18.0216 25.9005 18.5439 24.5514C18.8137 23.8545 18.9039 23.2886 18.9037 22.2941C18.9035 21.5107 18.8889 21.3785 18.7837 21.2059C18.4327 20.6301 17.5706 20.6234 17.2238 21.1937C17.1324 21.3441 17.1059 21.5464 17.0796 22.2944C17.0583 22.9027 17.0131 23.3225 16.9453 23.5425C16.5681 24.7669 15.6405 25.686 14.4139 26.0506C13.9283 26.1949 13.0311 26.1949 12.5455 26.0506C11.3189 25.686 10.3913 24.7669 10.0141 23.5425C9.94632 23.3225 9.90112 22.9027 9.87979 22.2944C9.85351 21.5464 9.82705 21.3441 9.73563 21.1937C9.57567 20.9306 9.28132 20.7698 8.95954 20.7698C8.79501 20.7698 8.61107 20.817 8.49192 20.8897Z" fill="black"/>
</svg>
