<svg width="36" height="36" viewBox="0 0 36 36" fill="none" xmlns="http://www.w3.org/2000/svg">
<path d="M21.006 15.3668C20.8634 15.3658 20.7262 15.4213 20.6244 15.5211C20.5225 15.621 20.4643 15.757 20.4624 15.8996V19.8812C20.4643 20.0241 20.5228 20.1604 20.625 20.2603C20.7272 20.3602 20.8649 20.4154 21.0078 20.414H33.0012C33.1441 20.4154 33.2818 20.3602 33.384 20.2603C33.4862 20.1604 33.5447 20.0241 33.5466 19.8812V15.8996C33.5447 15.7567 33.4862 15.6204 33.384 15.5205C33.2818 15.4206 33.1441 15.3654 33.0012 15.3668H21.0078H21.006ZM28.3608 2.702C30.0204 2.7812 31.2138 3.1088 31.9698 3.8036C32.7168 4.4912 33.1002 5.4866 33.1758 6.80419V10.5788C33.172 10.9002 33.0408 11.2071 32.8109 11.4318C32.5811 11.6566 32.2715 11.781 31.95 11.7776C31.7907 11.7795 31.6325 11.75 31.4846 11.6908C31.3367 11.6316 31.2019 11.5438 31.0879 11.4325C30.9739 11.3211 30.8829 11.1885 30.8202 11.042C30.7575 10.8955 30.7243 10.7381 30.7224 10.5788L30.7242 6.8726C30.6846 6.1886 30.5208 5.7638 30.2868 5.5478C30.06 5.339 29.3688 5.1518 28.3014 5.0978H4.7646C3.798 5.1338 3.1698 5.3174 2.8656 5.5784C2.6316 5.7782 2.4552 6.329 2.4534 7.2812L2.448 28.4672C2.538 29.3924 2.7414 30.0098 3.0024 30.3176C3.2004 30.5516 3.8142 30.7856 4.7178 30.9008H28.3266C29.4318 30.9224 30.0834 30.7568 30.303 30.5354C30.546 30.2888 30.7224 29.6408 30.7224 28.5806V24.8996C30.7224 24.239 31.2714 23.7008 31.95 23.7008C32.6268 23.7008 33.1758 24.239 33.1758 24.8996V28.5806C33.1758 30.2006 32.8446 31.412 32.0688 32.1986C31.2696 33.0086 29.9988 33.3326 28.3014 33.2966L4.572 33.2912C2.9574 33.104 1.8 32.6612 1.1106 31.8458C0.486 31.1078 0.1386 30.0548 0 28.5824V7.2794C0.0036 5.7026 0.3816 4.5164 1.2492 3.7748C2.0448 3.0908 3.1932 2.7578 4.7178 2.7002H28.3608V2.702ZM33.0012 12.9692C34.6572 12.9692 36 14.2814 36 15.8996V19.8812C36 21.4994 34.6572 22.8116 33.0012 22.8116H21.0078C19.3518 22.8116 18.009 21.4976 18.009 19.8812V15.8996C18.009 14.2814 19.3518 12.9692 21.0078 12.9692H33.0012ZM24.0066 16.4612C23.1786 16.4612 22.5072 17.1092 22.5072 17.9066C22.5072 18.7058 23.1786 19.352 24.0066 19.352C24.8346 19.352 25.506 18.704 25.506 17.9066C25.506 17.1074 24.8346 16.4594 24.0066 16.4594V16.4612Z" fill="white"/>
</svg>
