<svg width="24" height="24" viewBox="0 0 24 24" fill="none" xmlns="http://www.w3.org/2000/svg">
<path fill-rule="evenodd" clip-rule="evenodd" d="M14.6016 0.0718801C12.9716 0.420819 11.6606 1.74399 11.3243 3.37967C11.2703 3.64243 11.25 4.01031 11.25 4.72769V5.71431L9.36324 5.71449C7.56326 5.71464 7.46946 5.71895 7.32373 5.80785C7.23968 5.8591 7.12905 5.96975 7.07782 6.05382C6.98786 6.20138 6.98463 6.29487 6.98449 8.77373L6.9843 11.3408L3.73816 11.341C0.581686 11.3412 0.487794 11.3437 0.339245 11.4344C0.255197 11.4856 0.14457 11.5963 0.0933351 11.6804C0.00183375 11.8304 0.000146224 11.9271 5.59719e-06 17.0218C-0.000181906 21.9725 0.0038494 22.2234 0.0881319 22.4943C0.209774 22.8852 0.368355 23.1393 0.666719 23.4217C0.949239 23.6889 1.16505 23.8128 1.54353 23.925C1.7742 23.9935 2.75644 24.0005 11.9968 24C22.9267 23.9994 22.3973 24.0107 22.8717 23.7681C23.1377 23.632 23.5537 23.2387 23.7054 22.9797C23.7704 22.8688 23.8633 22.6504 23.9119 22.4943C23.9969 22.2209 24.0002 21.9148 24 14.2085C23.9999 6.30659 23.9987 6.20471 23.9067 6.05382C23.8554 5.96975 23.7448 5.8591 23.6608 5.80785C23.515 5.71895 23.4213 5.71464 21.6284 5.71449L19.7488 5.71431L19.7184 5.18682C19.7017 4.89673 19.6879 4.45274 19.6879 4.20021C19.6869 2.20448 18.2689 0.473708 16.3028 0.0684573C15.8533 -0.024193 15.0428 -0.0225519 14.6016 0.0718801ZM16.2238 1.52292C16.9314 1.73091 17.5934 2.26154 17.914 2.8776C18.2139 3.4539 18.2449 3.61416 18.2695 4.71794L18.2918 5.71431H15.5024H12.713L12.679 4.98914C12.6297 3.93609 12.6999 3.49577 13.0122 2.90104C13.4066 2.14971 14.1617 1.60075 15.0075 1.45033C15.3277 1.39341 15.8993 1.4275 16.2238 1.52292ZM11.2971 7.5781C11.2972 7.95151 11.3143 8.06324 11.3904 8.18806C11.6664 8.64095 12.3336 8.64095 12.6096 8.18806C12.6857 8.06324 12.7028 7.95151 12.7029 7.5781L12.7031 7.12094H15.5157H18.3282L18.3284 7.5781C18.3286 7.95151 18.3456 8.06324 18.4217 8.18806C18.6978 8.64095 19.3649 8.64095 19.641 8.18806C19.7171 8.06324 19.7342 7.95151 19.7343 7.5781L19.7345 7.12094H21.1648H22.595L22.5828 14.6196C22.5705 22.1105 22.5704 22.1183 22.4738 22.2476C22.4207 22.3189 22.3189 22.4206 22.2478 22.4738C22.1212 22.5683 22.0609 22.5707 19.4908 22.5837L16.8634 22.597L16.9033 22.4899C16.9253 22.4311 16.9491 20.0092 16.9563 17.108C16.9692 11.9065 16.9681 11.8311 16.8758 11.6804C16.8243 11.5963 16.7134 11.4856 16.6294 11.4344C16.4801 11.3433 16.3852 11.3412 12.4336 11.341L8.39057 11.3408V9.23089V7.12094H9.84372H11.2969L11.2971 7.5781ZM15.5517 17.4328C15.5392 22.082 15.5384 22.1192 15.4425 22.2476C15.3893 22.3189 15.2876 22.4206 15.2164 22.4738C15.087 22.5704 15.0798 22.5705 8.48432 22.5705C1.88886 22.5705 1.8816 22.5704 1.75227 22.4738C1.68106 22.4206 1.57934 22.3189 1.52619 22.2476C1.43028 22.1192 1.42943 22.082 1.41692 17.4328L1.40431 12.7475H8.48432H15.5643L15.5517 17.4328ZM4.60493 14.2476C4.3076 14.429 4.26588 14.5633 4.2657 15.34C4.26551 16.1135 4.33563 16.5536 4.5455 17.0956C4.95177 18.145 5.90077 19.0942 6.94985 19.5006C7.91849 19.8758 9.05016 19.8758 10.0188 19.5006C11.0679 19.0942 12.0169 18.145 12.4231 17.0956C12.633 16.5536 12.7031 16.1135 12.7029 15.34C12.7028 14.7306 12.6915 14.6279 12.6096 14.4936C12.3367 14.0457 11.6661 14.0405 11.3964 14.4841C11.3253 14.601 11.3047 14.7584 11.2843 15.3402C11.2677 15.8133 11.2325 16.1398 11.1798 16.3109C10.8864 17.2632 10.1649 17.9781 9.2109 18.2617C8.83322 18.3739 8.13543 18.3739 7.75775 18.2617C6.80373 17.9781 6.08222 17.2632 5.78887 16.3109C5.73614 16.1398 5.70098 15.8133 5.68439 15.3402C5.66395 14.7584 5.64337 14.601 5.57226 14.4841C5.44785 14.2795 5.21891 14.1544 4.96864 14.1544C4.84067 14.1544 4.69761 14.1911 4.60493 14.2476Z" fill="black"/>
</svg>
