<svg width="70" height="70" viewBox="0 0 70 70" fill="none" xmlns="http://www.w3.org/2000/svg">
<path fill-rule="evenodd" clip-rule="evenodd" d="M32.8885 0.0102946C28.4263 0.315455 24.3935 1.32746 20.4012 3.144C19.4231 3.58907 19.2426 3.67977 18.2154 4.24283C14.0881 6.50504 10.5079 9.52126 7.58299 13.2002C3.04976 18.9022 0.446041 25.7699 0.0279588 33.128C-0.025809 34.0745 0.00258673 36.8171 0.0738417 37.5578C0.319716 40.1139 0.513529 41.3532 0.954375 43.1884C1.72823 46.4103 2.96961 49.5363 4.60777 52.3885C5.367 53.7105 6.04121 54.7472 6.13016 54.7295C6.21448 54.7127 10.7783 50.1946 10.7783 50.1279C10.7783 50.0936 10.5983 49.7578 10.3783 49.3816C9.66808 48.1674 9.04583 46.8965 8.49071 45.5262C7.98193 44.2701 7.39461 42.3354 7.10954 40.9764C5.61439 33.8485 6.83532 26.4824 10.532 20.3282C13.3282 15.6732 17.3925 11.9053 22.2354 9.47827C23.8495 8.66942 25.3133 8.09263 27.0092 7.59734C28.6595 7.11536 30.174 6.81774 32.0593 6.60483C32.931 6.5064 33.3211 6.49137 34.999 6.49137C36.6768 6.49137 37.067 6.5064 37.9386 6.60483C39.8239 6.81774 41.3384 7.11536 42.9888 7.59734C44.6846 8.09263 46.1484 8.66942 47.7625 9.47827C51.7061 11.4546 55.1311 14.3126 57.7957 17.8505C61.735 23.081 63.7694 29.6007 63.4903 36.0999C63.4064 38.0542 63.1021 40.2535 62.7044 41.7808C61.9464 44.6916 60.996 47.0361 59.6293 49.3669C59.404 49.7512 59.2196 50.0936 59.2196 50.1279C59.2196 50.1946 63.7834 54.7127 63.8678 54.7295C64.0299 54.7617 65.5745 52.1667 66.4282 50.4278C68.5306 46.1456 69.6963 41.6574 69.9733 36.7786C70.0262 35.847 69.9959 33.2157 69.923 32.4048C69.764 30.6365 69.68 30.0004 69.4117 28.5337C68.1327 21.5422 64.5956 14.9207 59.4792 9.93999C54.1836 4.78503 47.5984 1.49517 40.3004 0.358739C38.5297 0.0830389 37.5952 0.0166274 35.3005 0.00355625C34.1259 -0.00313014 33.0405 -0.000112051 32.8885 0.0102946ZM29.6347 19.0445L24.2956 24.3861V21.6201V18.8541L23.9816 18.6846C23.0965 18.207 22.2933 17.7708 21.6896 17.4396C21.3203 17.2371 21.0092 17.0713 20.9984 17.0713C20.9875 17.0713 20.6962 16.9129 20.351 16.7194C20.0058 16.5258 19.695 16.3681 19.6603 16.3689C19.6256 16.3696 19.4842 16.5516 19.346 16.7731C19.2078 16.9947 18.9591 17.3845 18.7932 17.6392C18.6274 17.894 18.3119 18.3851 18.0921 18.7306C17.8723 19.0761 17.5545 19.5737 17.3857 19.8363C17.217 20.099 16.9851 20.461 16.8705 20.6407C16.7558 20.8205 16.4365 21.3179 16.1609 21.7461C15.8853 22.1744 15.6686 22.5336 15.6795 22.5445C15.6903 22.5553 16.271 22.2476 16.9699 21.8605C17.6687 21.4734 18.3535 21.0944 18.4917 21.0183C18.6299 20.9422 18.8588 20.8148 19.0004 20.7352C19.1419 20.6556 19.2719 20.5905 19.2893 20.5905C19.3066 20.5905 19.3202 23.7747 19.3193 27.6665L19.3177 34.7425L19.1707 34.3906C19.0899 34.197 18.852 33.5975 18.6421 33.0583C17.9742 31.3431 17.8455 31.0234 17.8026 30.9733C17.7776 30.9441 16.2908 32.3949 14.1187 34.5677C10.7506 37.9372 10.4768 38.2237 10.4768 38.379C10.4768 38.6612 10.7254 40.1773 10.9068 41.0015C11.187 42.2752 11.5059 43.3375 11.9908 44.613C12.2373 45.2616 12.7379 46.3808 12.7815 46.3808C12.799 46.3808 17.8051 41.3868 23.9062 35.283L34.999 24.1851L46.1022 35.2934C52.209 41.403 57.2172 46.39 57.2315 46.3757C57.2777 46.3294 57.6667 45.4655 57.8744 44.948C58.3721 43.7075 58.7751 42.4127 59.0714 41.1021C59.2408 40.3531 59.5205 38.6635 59.5209 38.3873C59.5211 38.22 58.9124 37.6022 47.2726 25.9571C40.5358 19.2173 35.0127 13.703 34.9989 13.703C34.9851 13.703 32.5712 16.1066 29.6347 19.0445ZM32.8532 33.3599C32.391 33.4811 31.8371 33.7242 31.5109 33.9493C30.9172 34.3589 30.2811 35.1064 30.02 35.7014C29.8486 36.0921 29.6724 36.8213 29.6724 37.1404V37.4321H31.7578H33.8432V35.3458V33.2594L33.5291 33.2622C33.3564 33.2637 33.0522 33.3076 32.8532 33.3599ZM36.1547 35.3458V37.4321H38.2401H40.3255V37.1404C40.3255 36.8213 40.1494 36.0921 39.9779 35.7014C39.7168 35.1064 39.0807 34.3589 38.487 33.9493C37.9463 33.5763 37.0098 33.2594 36.4482 33.2594H36.1547V35.3458ZM29.6724 41.3032V43.4147H31.7578H33.8432V41.3032V39.1917H31.7578H29.6724V41.3032ZM36.1547 41.3032V43.4147H38.2401H40.3255V41.3032V39.1917H38.2401H36.1547V41.3032ZM43.217 45.1862C43.2031 45.2488 43.1856 45.3791 43.1782 45.4759L43.1646 45.6519L41.6972 45.677C40.8208 45.692 40.2098 45.7224 40.1801 45.7524C40.1527 45.78 40.1233 45.9271 40.1148 46.0792L40.0994 46.3557L35.2251 46.3844C30.0755 46.4147 30.1554 46.4111 29.0946 46.6549C27.9728 46.9126 26.4965 47.5711 25.3955 48.3049C23.8256 49.3512 22.1537 51.0401 20.9928 52.7525C20.7821 53.0633 20.6205 53.3285 20.6338 53.3417C20.6469 53.3549 20.9703 53.2088 21.3523 53.017C23.2045 52.087 25.3432 51.4371 27.131 51.2611C28.7031 51.1063 30.5482 51.2969 31.2049 51.6819C32.0686 52.1883 32.6004 53.5992 32.7347 55.7405C32.7817 56.4902 32.8378 56.6559 33.0963 56.8086L33.2402 56.8937V60.1907V63.4877L32.8005 63.4536C26.9655 63.0022 21.4674 60.7915 16.9088 57.0639C15.6464 56.0316 14.38 54.7853 13.2378 53.4512L12.7702 52.9051L12.3661 53.3255C8.306 57.5483 8.31605 57.5377 8.31605 57.6174C8.31605 57.6905 9.36889 58.8462 10.1753 59.6582C13.2282 62.7325 16.5671 65.0584 20.5729 66.9015C26.4942 69.6257 33.5593 70.6111 40.1245 69.6282C47.0325 68.5941 53.2559 65.6516 58.491 60.9441C59.5466 59.9949 61.6819 57.7578 61.6819 57.6011C61.6819 57.5722 61.3484 57.2015 60.9407 56.7775C60.0576 55.8588 58.252 53.9752 57.6553 53.3502L57.2295 52.9043L56.762 53.4508C52.8129 58.0672 47.6769 61.2585 41.8815 62.6971C40.8233 62.9598 39.5102 63.2018 38.4914 63.3219C38.2426 63.3512 37.9656 63.3847 37.8758 63.3962L37.7125 63.4172V60.1518V56.8864L37.8758 56.8077C38.1144 56.6926 38.2309 56.5071 38.2492 56.2128C38.3547 54.5238 38.4432 53.9242 38.6973 53.1783C38.9332 52.4859 39.3451 51.8376 39.7412 51.5353C39.8838 51.4265 39.936 51.4113 40.0173 51.4548C40.0724 51.4843 40.1247 51.5595 40.1335 51.6217L40.1496 51.735L41.6027 51.7483C42.5723 51.7572 43.078 51.7802 43.1227 51.8173C43.1628 51.8506 43.1898 51.9776 43.1898 52.1332C43.1898 52.2764 43.2169 52.4207 43.2501 52.4539C43.3436 52.5474 46.9753 52.5397 47.0532 52.4458C47.0945 52.3961 47.1064 51.3848 47.0971 48.7381L47.0842 45.0988L45.1632 45.0857L43.2422 45.0725L43.217 45.1862Z" fill="url(#paint0_linear_340_1175)"/>
<defs>
<linearGradient id="paint0_linear_340_1175" x1="35" y1="-1.70824e-09" x2="35.0287" y2="46.3227" gradientUnits="userSpaceOnUse">
<stop stop-color="#FFA509"/>
<stop offset="1" stop-color="#F66C4F"/>
</linearGradient>
</defs>
</svg>
