<svg width="28" height="28" viewBox="0 0 28 28" fill="none" xmlns="http://www.w3.org/2000/svg">
<path d="M13.9974 14C17.2191 14 19.8307 11.3883 19.8307 8.16665C19.8307 4.94499 17.2191 2.33331 13.9974 2.33331C10.7757 2.33331 8.16406 4.94499 8.16406 8.16665C8.16406 11.3883 10.7757 14 13.9974 14Z" stroke="black" stroke-width="1.5"/>
<path d="M19.8321 16.3333H20.2428C21.0957 16.3336 21.9192 16.6452 22.5585 17.2098C23.1978 17.7744 23.609 18.553 23.7148 19.3993L24.1709 23.044C24.212 23.3723 24.1827 23.7056 24.0851 24.0218C23.9874 24.3379 23.8237 24.6297 23.6047 24.8777C23.3857 25.1258 23.1164 25.3244 22.8148 25.4604C22.5131 25.5964 22.186 25.6667 21.8551 25.6666H6.14244C5.81155 25.6667 5.48443 25.5964 5.18279 25.4604C4.88115 25.3244 4.61189 25.1258 4.39287 24.8777C4.17386 24.6297 4.0101 24.3379 3.91247 24.0218C3.81484 23.7056 3.78557 23.3723 3.8266 23.044L4.2816 19.3993C4.38741 18.5526 4.79892 17.7737 5.43874 17.209C6.07856 16.6444 6.90261 16.333 7.75594 16.3333H8.16544" stroke="black" stroke-width="1.5" stroke-linecap="round" stroke-linejoin="round"/>
</svg>
