<svg width="22" height="22" viewBox="0 0 22 22" fill="none" xmlns="http://www.w3.org/2000/svg">
<path d="M9.66634 19C11.7371 18.9996 13.7483 18.3063 15.3795 17.0306L19.6833 21.3345C20.1389 21.79 20.8775 21.79 21.333 21.3345C21.7886 20.8789 21.7886 20.1404 21.333 19.6848L17.0292 15.381C18.3055 13.7496 18.9992 11.738 18.9997 9.66665C18.9997 4.52048 14.8125 0.333313 9.66634 0.333313C4.52017 0.333313 0.333008 4.52048 0.333008 9.66665C0.333008 14.8128 4.52017 19 9.66634 19ZM9.66634 2.66665C13.5268 2.66665 16.6663 5.80615 16.6663 9.66665C16.6663 13.5271 13.5268 16.6666 9.66634 16.6666C5.80584 16.6666 2.66634 13.5271 2.66634 9.66665C2.66634 5.80615 5.80584 2.66665 9.66634 2.66665Z" fill="black"/>
</svg>
