<svg width="80" height="80" viewBox="0 0 80 80" fill="none" xmlns="http://www.w3.org/2000/svg">
<path fill-rule="evenodd" clip-rule="evenodd" d="M37.5868 0.0117652C32.4872 0.360521 27.8783 1.5171 23.3157 3.59314C22.1978 4.10179 21.9916 4.20545 20.8176 4.84895C16.1007 7.43433 12.009 10.8814 8.66628 15.086C3.48544 21.6025 0.509762 29.4514 0.0319529 37.8606C-0.029496 38.9423 0.00295626 42.0767 0.0843905 42.9232C0.36539 45.8445 0.586891 47.2607 1.09071 49.3582C1.97512 53.0403 3.39384 56.6129 5.26603 59.8726C6.13372 61.3834 6.90424 62.5682 7.00589 62.5479C7.10226 62.5288 12.3181 57.3652 12.3181 57.289C12.3181 57.2499 12.1123 56.8661 11.8609 56.4361C11.0492 55.0485 10.3381 53.596 9.70367 52.0299C9.1222 50.5944 8.45098 48.3833 8.12518 46.8302C6.41644 38.684 7.81179 30.2656 12.0366 23.2322C15.2322 17.9123 19.8772 13.606 25.4119 10.8323C27.2565 9.90791 28.9295 9.24872 30.8676 8.68267C32.7537 8.13184 34.4845 7.79171 36.6392 7.54838C37.6354 7.43588 38.0813 7.4187 39.9988 7.4187C41.9164 7.4187 42.3622 7.43588 43.3584 7.54838C45.5131 7.79171 47.2439 8.13184 49.13 8.68267C51.0681 9.24872 52.7411 9.90791 54.5858 10.8323C59.0927 13.0909 63.007 16.3572 66.0522 20.4006C70.5543 26.3783 72.8793 33.8294 72.5603 41.257C72.4644 43.4905 72.1167 46.004 71.6621 47.7495C70.7959 51.0761 69.7097 53.7556 68.1478 56.4193C67.8903 56.8585 67.6796 57.2499 67.6796 57.289C67.6796 57.3652 72.8954 62.5288 72.9917 62.5479C73.177 62.5848 74.9423 59.6191 75.918 57.6318C78.3207 52.7379 79.653 47.6084 79.9695 42.0326C80.0299 40.968 79.9953 37.9608 79.912 37.034C79.7303 35.0131 79.6343 34.2862 79.3276 32.6099C77.8659 24.6196 73.8235 17.0522 67.9762 11.36C61.9241 5.46861 54.3982 1.70877 46.0576 0.409988C44.034 0.0949016 42.9659 0.0190027 40.3434 0.00406429C39.001 -0.0035773 37.7605 -0.000128059 37.5868 0.0117652ZM33.8682 21.7651L27.7664 27.8698V24.7086V21.5475L27.4075 21.3539C26.396 20.808 25.478 20.3094 24.7881 19.931C24.366 19.6995 24.0105 19.5101 23.9981 19.5101C23.9857 19.5101 23.6528 19.3291 23.2583 19.1079C22.8637 18.8867 22.5085 18.7064 22.4689 18.7073C22.4293 18.7081 22.2676 18.9161 22.1097 19.1693C21.9518 19.4225 21.6675 19.8679 21.478 20.1591C21.2885 20.4503 20.9279 21.0115 20.6767 21.4064C20.4255 21.8012 20.0622 22.3699 19.8694 22.6701C19.6766 22.9703 19.4116 23.384 19.2805 23.5894C19.1495 23.7948 18.7846 24.3633 18.4696 24.8527C18.1546 25.3421 17.907 25.7527 17.9194 25.7651C17.9318 25.7775 18.5954 25.4258 19.3941 24.9834C20.1928 24.541 20.9755 24.1079 21.1334 24.0209C21.2913 23.934 21.5529 23.7883 21.7147 23.6974C21.8765 23.6064 22.025 23.5319 22.0449 23.5319C22.0647 23.5319 22.0802 27.1711 22.0791 31.6188L22.0773 39.7057L21.9094 39.3035C21.817 39.0823 21.5452 38.3971 21.3052 37.7809C20.5419 35.8207 20.3949 35.4553 20.3458 35.398C20.3173 35.3647 18.618 37.0227 16.1357 39.506C12.2864 43.3568 11.9735 43.6842 11.9735 43.8617C11.9735 44.1842 12.2576 45.9169 12.4649 46.8589C12.7852 48.3145 13.1496 49.5285 13.7037 50.9863C13.9855 51.7275 14.5576 53.0066 14.6074 53.0066C14.6275 53.0066 20.3487 47.2992 27.3213 40.3234L39.9988 27.6401L52.6882 40.3353C59.6674 47.3177 65.3911 53.0172 65.4074 53.0008C65.4602 52.9479 65.9048 51.9606 66.1421 51.3692C66.711 49.9514 67.1715 48.4717 67.5102 46.9738C67.7037 46.1178 68.0234 44.1869 68.0238 43.8712C68.0241 43.68 67.3284 42.974 54.0258 29.6653C46.3267 21.9627 40.0145 15.6605 39.9988 15.6605C39.983 15.6605 37.2243 18.4076 33.8682 21.7651ZM37.5465 38.1255C37.0182 38.2641 36.3853 38.542 36.0124 38.7992C35.3339 39.2673 34.607 40.1216 34.3086 40.8016C34.1126 41.2481 33.9113 42.0815 33.9113 42.4461V42.7796H36.2946H38.6779V40.3952V38.0107L38.319 38.0139C38.1216 38.0156 37.774 38.0658 37.5465 38.1255ZM41.3197 40.3952V42.7796H43.703H46.0863V42.4461C46.0863 42.0815 45.885 41.2481 45.689 40.8016C45.3906 40.1216 44.6637 39.2673 43.9852 38.7992C43.3672 38.3729 42.297 38.0107 41.6551 38.0107H41.3197V40.3952ZM33.9113 47.2036V49.6168H36.2946H38.6779V47.2036V44.7905H36.2946H33.9113V47.2036ZM41.3197 47.2036V49.6168H43.703H46.0863V47.2036V44.7905H43.703H41.3197V47.2036ZM49.3909 51.6414C49.375 51.7129 49.355 51.8618 49.3465 51.9725L49.331 52.1735L47.654 52.2023C46.6523 52.2194 45.9541 52.2542 45.9201 52.2885C45.8888 52.3201 45.8552 52.4881 45.8455 52.6619L45.8278 52.9779L40.2572 53.0107C34.372 53.0453 34.4633 53.0413 33.2509 53.3199C31.9689 53.6144 30.2817 54.367 29.0235 55.2056C27.2292 56.4014 25.3185 58.3315 23.9918 60.2886C23.751 60.6438 23.5663 60.9468 23.5814 60.9619C23.5965 60.9771 23.9661 60.81 24.4027 60.5908C26.5194 59.528 28.9636 58.7853 31.0068 58.5841C32.8035 58.4072 34.9123 58.6251 35.6628 59.065C36.6498 59.6437 37.2576 61.2562 37.4111 63.7034C37.4648 64.5602 37.5289 64.7496 37.8243 64.9241L37.9888 65.0214V68.7893V72.5573L37.4863 72.5184C30.8178 72.0025 24.5342 69.476 19.3243 65.2158C17.8816 64.0361 16.4342 62.6118 15.1289 61.0871L14.5946 60.463L14.1327 60.9434C9.49257 65.7695 9.50405 65.7574 9.50405 65.8485C9.50405 65.932 10.7073 67.2528 11.6289 68.1808C15.118 71.6942 18.9338 74.3525 23.5119 76.4588C30.2791 79.5723 38.3535 80.6984 45.8566 79.5751C53.7514 78.3933 60.8639 75.0303 66.8468 69.6504C68.0532 68.5656 70.4936 66.0089 70.4936 65.8298C70.4936 65.7968 70.1124 65.3732 69.6465 64.8885C68.6373 63.8386 66.5737 61.6859 65.8917 60.9717L65.4051 60.462L64.8708 61.0866C60.3576 66.3625 54.4878 70.0098 47.8645 71.6539C46.6552 71.9541 45.1545 72.2306 43.9901 72.3679C43.7058 72.4014 43.3892 72.4396 43.2866 72.4528L43.1 72.4768V68.7449V65.013L43.2866 64.923C43.5593 64.7916 43.6924 64.5795 43.7134 64.2432C43.8339 62.313 43.9351 61.6277 44.2255 60.7752C44.495 59.9839 44.9658 59.243 45.4186 58.8975C45.5815 58.7732 45.6411 58.7558 45.734 58.8055C45.797 58.8392 45.8568 58.9251 45.8669 58.9963L45.8853 59.1257L47.5459 59.1409C48.654 59.1511 49.232 59.1773 49.2831 59.2198C49.3289 59.2578 49.3597 59.403 49.3597 59.5808C49.3597 59.7445 49.3907 59.9094 49.4286 59.9473C49.5355 60.0542 53.6861 60.0454 53.7751 59.9381C53.8222 59.8812 53.8359 58.7255 53.8252 55.7007L53.8105 51.5415L51.6151 51.5265L49.4197 51.5114L49.3909 51.6414Z" fill="white"/>
</svg>
